<mxfile host="Electron" modified="2025-07-28T04:48:39.155Z" agent="Mozilla/5.0 (Windows NT 10.0; Win64; x64) AppleWebKit/537.36 (KHTML, like Gecko) draw.io/23.1.5 Chrome/120.0.6099.109 Electron/28.1.0 Safari/537.36" etag="9_FRjPLUfLdrFvW3GtK8" version="23.1.5" type="device">
  <diagram id="iyKAPps9XD8DUqbCGZKK" name="Page-1">
    <mxGraphModel dx="710" dy="1463" grid="1" gridSize="10" guides="1" tooltips="1" connect="1" arrows="1" fold="1" page="1" pageScale="1" pageWidth="1100" pageHeight="850" math="0" shadow="0">
      <root>
        <mxCell id="0" />
        <mxCell id="1" parent="0" />
        <mxCell id="kbbceTMwpNERbd7I0oCI-31" value="" style="rounded=1;whiteSpace=wrap;html=1;connectable=0;arcSize=6;strokeColor=none;" vertex="1" parent="1">
          <mxGeometry x="1240" y="20" width="640" height="640" as="geometry" />
        </mxCell>
        <mxCell id="kbbceTMwpNERbd7I0oCI-27" value="" style="verticalLabelPosition=bottom;verticalAlign=top;html=1;shape=mxgraph.basic.polygon;polyCoords=[[0.47,0],[0.47,0],[0.98,0.5],[0.47,1],[0.47,1],[0.47,1],[0.47,1],[0,0.5]];polyline=0;strokeColor=none;fillColor=#E6E6E6;connectable=0;allowArrows=0;flipV=1;" vertex="1" parent="1">
          <mxGeometry x="1399" y="200" width="190" height="280" as="geometry" />
        </mxCell>
        <mxCell id="kbbceTMwpNERbd7I0oCI-26" value="" style="verticalLabelPosition=bottom;verticalAlign=top;html=1;shape=mxgraph.basic.polygon;polyCoords=[[0.25,0],[0.61,0],[1,1],[0.91,1],[0.75,1],[0.61,1],[0.43,1],[0,0]];polyline=0;strokeColor=none;fillColor=#CCCCCC;connectable=0;allowArrows=0;flipV=1;" vertex="1" parent="1">
          <mxGeometry x="1489" y="340" width="230" height="140" as="geometry" />
        </mxCell>
        <mxCell id="kbbceTMwpNERbd7I0oCI-23" value="" style="verticalLabelPosition=bottom;verticalAlign=top;html=1;shape=mxgraph.basic.polygon;polyCoords=[[0.25,0],[0.61,0],[1,1],[0.91,1],[0.75,1],[0.61,1],[0.43,1],[0,0]];polyline=0;strokeColor=none;fillColor=#FFFFFF;connectable=0;allowArrows=0;" vertex="1" parent="1">
          <mxGeometry x="1489" y="200" width="230" height="140" as="geometry" />
        </mxCell>
        <mxCell id="kbbceTMwpNERbd7I0oCI-10" value="" style="endArrow=none;html=1;rounded=1;strokeWidth=20;curved=0;strokeColor=#000000;" edge="1" parent="1">
          <mxGeometry width="50" height="50" relative="1" as="geometry">
            <mxPoint x="1410" y="529.03" as="sourcePoint" />
            <mxPoint x="1412.5795454545455" y="149.99774193548387" as="targetPoint" />
            <Array as="points">
              <mxPoint x="1290" y="339.03" />
            </Array>
          </mxGeometry>
        </mxCell>
        <mxCell id="kbbceTMwpNERbd7I0oCI-11" value="" style="endArrow=none;html=1;rounded=1;strokeWidth=20;curved=0;startArrow=none;startFill=0;endFill=0;jumpStyle=none;shadow=0;" edge="1" parent="1">
          <mxGeometry width="50" height="50" relative="1" as="geometry">
            <mxPoint x="1706.7704545454546" y="542.2558064516129" as="sourcePoint" />
            <mxPoint x="1706.7704545454546" y="149.99774193548387" as="targetPoint" />
            <Array as="points">
              <mxPoint x="1829" y="340" />
            </Array>
          </mxGeometry>
        </mxCell>
        <mxCell id="kbbceTMwpNERbd7I0oCI-12" value="" style="endArrow=none;html=1;rounded=0;strokeWidth=9;curved=0;" edge="1" parent="1">
          <mxGeometry width="50" height="50" relative="1" as="geometry">
            <mxPoint x="1589" y="480" as="sourcePoint" />
            <mxPoint x="1589" y="480" as="targetPoint" />
            <Array as="points">
              <mxPoint x="1489" y="480" />
              <mxPoint x="1399" y="340" />
              <mxPoint x="1489" y="200" />
              <mxPoint x="1629" y="200" />
              <mxPoint x="1719" y="340" />
              <mxPoint x="1629" y="480" />
            </Array>
          </mxGeometry>
        </mxCell>
        <mxCell id="kbbceTMwpNERbd7I0oCI-13" value="" style="endArrow=none;html=1;rounded=0;strokeWidth=9;" edge="1" parent="1">
          <mxGeometry width="50" height="50" relative="1" as="geometry">
            <mxPoint x="1489" y="480" as="sourcePoint" />
            <mxPoint x="1489" y="200" as="targetPoint" />
            <Array as="points">
              <mxPoint x="1584" y="340" />
            </Array>
          </mxGeometry>
        </mxCell>
        <mxCell id="kbbceTMwpNERbd7I0oCI-14" value="" style="endArrow=none;html=1;rounded=0;strokeWidth=9;" edge="1" parent="1">
          <mxGeometry width="50" height="50" relative="1" as="geometry">
            <mxPoint x="1584" y="340" as="sourcePoint" />
            <mxPoint x="1719" y="340" as="targetPoint" />
            <Array as="points" />
          </mxGeometry>
        </mxCell>
      </root>
    </mxGraphModel>
  </diagram>
</mxfile>
